<mxfile host="Electron" modified="2023-07-21T15:24:57.395Z" agent="Mozilla/5.0 (X11; Linux x86_64) AppleWebKit/537.36 (KHTML, like Gecko) draw.io/21.6.1 Chrome/112.0.5615.204 Electron/24.6.1 Safari/537.36" etag="KsQdDBFwdAgKlNaGrY4E" version="21.6.1" type="device">
  <diagram name="Page-1" id="44I9hGHchTTdyHQQdCC0">
    <mxGraphModel dx="819" dy="497" grid="1" gridSize="10" guides="1" tooltips="1" connect="1" arrows="1" fold="1" page="1" pageScale="1" pageWidth="827" pageHeight="1169" math="0" shadow="0">
      <root>
        <mxCell id="0" />
        <mxCell id="1" parent="0" />
        <mxCell id="Sull-ByN69tNy64UvHHk-7" value="" style="rounded=1;whiteSpace=wrap;html=1;strokeColor=#000099;arcSize=10;" parent="1" vertex="1">
          <mxGeometry x="80" y="60" width="360" height="170" as="geometry" />
        </mxCell>
        <mxCell id="Sull-ByN69tNy64UvHHk-8" value="The element-wise addition here adds the text embedding to the position embedding. The text embedding represents the semantic meaning of the text, while position embedding informs the model of the sequential order of the tokens. As such each token can be processed independently, and hence parallelized.&amp;nbsp;" style="text;html=1;strokeColor=none;fillColor=none;align=left;verticalAlign=middle;whiteSpace=wrap;rounded=0;" parent="1" vertex="1">
          <mxGeometry x="95" y="120" width="320" height="90" as="geometry" />
        </mxCell>
        <mxCell id="Sull-ByN69tNy64UvHHk-13" value="&lt;font color=&quot;#000099&quot;&gt;Elementwise Matrix Addition&lt;/font&gt;" style="rounded=1;whiteSpace=wrap;html=1;strokeColor=#000099;" parent="1" vertex="1">
          <mxGeometry x="134" y="70" width="240" height="30" as="geometry" />
        </mxCell>
      </root>
    </mxGraphModel>
  </diagram>
</mxfile>
